# xmcd
#
# Track frame offsets:
# 150
# 14640
# 37460
# 51480
# 69677
# 88047
# 105057
# 132457
# 147100
# 162352
# 181372
# 193055
# 223772
# 237930
#
# Disc length: 3541 seconds
#
#
# Revision: 0
# Processed by: cddbd v1.5.2PL0 Copyright (c) Steve Scherf et al.
# Submitted via: Nero 7, 11, 10, 0 
#
DISCID=d60dd30e
DTITLE=Southside Jukes - Cool Cool Place To Go
DYEAR=1994
DGENRE=Blues
TTITLE0=Rocket 69
TTITLE1=Black Night
TTITLE2=Motorhead Baby
TTITLE3=That Ain't Right
TTITLE4=Worried Life Blues
TTITLE5=All Messed Up
TTITLE6=Been Down So Long
TTITLE7=House Rockin' Boogie
TTITLE8=Cool Cool Place To Go
TTITLE9=Soon Forgotten
TTITLE10=You Better Watch Yourself
TTITLE11=Atlanta Blues
TTITLE12=Irene
TTITLE13=Merry Christmas Baby
EXTD=
EXTT0=Rocket 69
EXTT1=Black Night
EXTT2=Motorhead Baby
EXTT3=That Ain't Right
EXTT4=Worried Life Blues
EXTT5=All Messed Up
EXTT6=Been Down So Long
EXTT7=House Rockin' Boogie
EXTT8=Cool Cool Place To Go
EXTT9=Soon Forgotten
EXTT10=You Better Watch Yourself
EXTT11=Atlanta Blues
EXTT12=Irene
EXTT13=Merry Christmas Baby
PLAYORDER=
